# xmcd CD database file
#
# Track frame offsets:
#	150
#	26083
#	45805
#	68713
#	91674
#	111905
#	137896
#	171781
#
# Disc length: 2586 seconds
#
# Revision: 0
# Processed by: cddbd v1.5.2PL0 Copyright (c) Steve Scherf et al.
# Submitted via: CDex 1.85
#
DISCID=5f0a1808
DTITLE=Rhoda Scott Lady Quartet - We Free Queens
DYEAR=2017
DGENRE=Jazz
TTITLE0=We Free Queens
TTITLE1=I Wanna Move
TTITLE2=Que Reste-t-il De Nos Amours ?
TTITLE3=One By One
TTITLE4=Rhoda's Delight
TTITLE5=Valse a Charlotte
TTITLE6=Joke
TTITLE7=What I'd say
EXTD=YEAR: 2017
EXTT0=
EXTT1=
EXTT2=
EXTT3=
EXTT4=
EXTT5=
EXTT6=
EXTT7=
PLAYORDER=
